<svg id="Layer_1" data-name="Layer 1" xmlns="http://www.w3.org/2000/svg" viewBox="0 0 243.48 142.02"><defs><style>.cls-1{fill:#2b8acb;fill-rule:evenodd;}</style></defs><title>feesimple-outline-logo</title><path class="cls-1" d="M186.17,218.62c3.69-.11,7.6-0.06,11.76.16-9,2.93-15.77,7.72-20.19,15.22-12,20.33-31,29.13-54.81,29.12,2.56-4.87,5.11-9.34,7.74-13.41,12.83-19.82,27.71-30.22,55.49-31.09h0Zm120.89-54.34h0ZM169.6,186.37c13.26-14.47,30.15-22.13,51.37-22.1h86.09c17.57-.86,32.22-7.71,43.68-21,5.25-6.09,6.89-9.47,10.77-16.21a1.71,1.71,0,0,0-1.48-2.56H246.31q-23.74.36-41.47,10.52t-29.27,30.05l-10.17,17.61a2.85,2.85,0,0,0,4.19,3.67h0Zm137.3-25.52H221c-16,0-30,4.1-42.15,12.77a92.28,92.28,0,0,1,34.72-20.85c37.08-12.75,87.33-7.94,124.88-2.65a54.48,54.48,0,0,1-4.8,3.15,58.1,58.1,0,0,1-26.73,7.58h0Zm-128.42,8.39-2.58,2.44-0.41.4,2.87-5c7.48-12.91,16.7-22.52,28.19-29.11q17-9.73,39.81-10.08H357.07l-3,5.14a67.69,67.69,0,0,1-12,14.11l-11.37-1.56c-33.49-4.16-68.87-7.15-102.25-.45-18.41,3.69-36,11.39-50,24.08h0Zm11.14,46.12h70.51a59.68,59.68,0,0,0,20.78-4.69,53.92,53.92,0,0,0,14.35-9.18l-26.11-2.26c-12.55-.81-25.1-1.2-37.58-0.8-23.61.79-48.3,4.48-68.71,17.12l-6.35,4.34-3.5,2.77,2.37-1.23q15.07-7.42,34.24-6.05h0Zm20.72-32.92h0Zm88.16,15.94c5-5.11,8.08-10.06,11.51-15.94H210.35c-19.1-1.53-34.3,7.16-46.82,19.82a147.82,147.82,0,0,0-17.41,21.94c12.54-12,27.26-19.36,44-23.75,32.9-8.63,75.31-5.68,108.42-2.07h0Zm-38.2,20.38h0Zm54.13-37.15h0ZM312.88,179H210.61c-20.29-1.63-36.35,7.5-49.52,20.84-12.95,13.1-23,30.24-31.61,45.09l-0.11.18L118.49,264a1.71,1.71,0,0,0,.62,2.34l5.69,0.23q19.17-.45,33.15-8.14a59.28,59.28,0,0,0,22.76-22.67c7.79-13.65,25.84-16.91,42.47-16.95h37.13a63,63,0,0,0,22-5,58.06,58.06,0,0,0,18-12.37c6-5.8,10.09-12.81,14.14-19.82A1.71,1.71,0,0,0,312.88,179Z" transform="translate(-118.26 -124.52)"/></svg>