<?xml version="1.0" encoding="utf-8"?>
<!-- Generator: Adobe Illustrator 19.2.1, SVG Export Plug-In . SVG Version: 6.00 Build 0)  -->
<svg version="1.1" id="Layer_1" xmlns="http://www.w3.org/2000/svg" xmlns:xlink="http://www.w3.org/1999/xlink" x="0px" y="0px"
	 viewBox="0 0 110 65" style="enable-background:new 0 0 110 65;" xml:space="preserve">
<style type="text/css">
	.st0{fill:none;stroke:#4ABAEE;stroke-width:1.0583;stroke-miterlimit:10;}
</style>
<desc>Created with Sketch.</desc>
<g>
	<path class="st0" d="M100.2,12c-43.8-6.4-66.7-1.7-79.5,18.8L18.9,34c6.7-10.7,15.9-16.1,27.7-16l37.9,0c2.9-0.1,5.7-0.7,8.2-1.6
		C95.5,15.4,98,13.9,100.2,12L100.2,12z"/>
	<path class="st0" d="M81.1,34.5C39.7,30,19.4,34.6,6.9,54.7c6.2-9.3,14.8-13.5,25.8-12.7h14.8l12.9,0l3.4,0
		C70.8,41.6,76.5,39.2,81.1,34.5L81.1,34.5z"/>
	<path class="st0" d="M20.7,30.7C33.5,10.3,56.4,5.6,100.2,12c2.1-1.8,4-4,5.7-6.6l2-3.4l-50.1,0C44.1,2.2,33.9,8,27.3,19.5
		l-0.1,0.1L20.7,30.7L20.7,30.7z"/>
	<path class="st0" d="M6.9,54.7C19.4,34.6,39.7,30,81.1,34.5c1.5-1.5,2.9-3.2,4.1-5.1l2-3.4l-39.4,0L42,26
		c-10.1-0.8-19.8,5.2-29,18.2L6.9,54.7L6.9,54.7z"/>
	<path class="st0" d="M32.7,42c-11-0.8-19.6,3.5-25.8,12.7l-4.8,8.3l2.1,0c11-0.3,19-4.7,24-13.2l0-0.1c3-5.2,9.4-7.8,19.3-7.8H32.7
		L32.7,42z"/>
	<path class="st0" d="M100.2,12c-43.8-6.4-66.7-1.7-79.5,18.8L18.9,34c6.7-10.7,15.9-16.1,27.7-16l37.9,0c2.9-0.1,5.7-0.7,8.2-1.6
		C95.5,15.4,98,13.9,100.2,12L100.2,12z"/>
	<path class="st0" d="M81.1,34.5C39.7,30,19.4,34.6,6.9,54.7c6.2-9.3,14.8-13.5,25.8-12.7h14.8l12.9,0l3.4,0
		C70.8,41.6,76.5,39.2,81.1,34.5L81.1,34.5z"/>
	<path class="st0" d="M20.7,30.7C33.5,10.3,56.4,5.6,100.2,12c2.1-1.8,4-4,5.7-6.6l2-3.4l-50.1,0C44.1,2.2,33.9,8,27.3,19.5
		l-0.1,0.1L20.7,30.7L20.7,30.7z"/>
	<path class="st0" d="M6.9,54.7C19.4,34.6,39.7,30,81.1,34.5c1.5-1.5,2.9-3.2,4.1-5.1l2-3.4l-39.4,0L42,26
		c-10.1-0.8-19.8,5.2-29,18.2L6.9,54.7L6.9,54.7z"/>
	<path class="st0" d="M32.7,42c-11-0.8-19.6,3.5-25.8,12.7l-4.8,8.3l2.1,0c11-0.3,19-4.7,24-13.2l0-0.1c3-5.2,9.4-7.8,19.3-7.8H32.7
		L32.7,42z"/>
	<path class="st0" d="M100.2,12c-43.8-6.4-66.7-1.7-79.5,18.8L18.9,34c6.7-10.7,15.9-16.1,27.7-16l37.9,0c2.9-0.1,5.7-0.7,8.2-1.6
		C95.5,15.4,98,13.9,100.2,12L100.2,12z"/>
	<path class="st0" d="M81.1,34.5C39.7,30,19.4,34.6,6.9,54.7c6.2-9.3,14.8-13.5,25.8-12.7h14.8l12.9,0l3.4,0
		C70.8,41.6,76.5,39.2,81.1,34.5L81.1,34.5z"/>
	<path class="st0" d="M20.7,30.7C33.5,10.3,56.4,5.6,100.2,12c2.1-1.8,4-4,5.7-6.6l2-3.4l-50.1,0C44.1,2.2,33.9,8,27.3,19.5
		l-0.1,0.1L20.7,30.7L20.7,30.7z"/>
	<path class="st0" d="M6.9,54.7C19.4,34.6,39.7,30,81.1,34.5c1.5-1.5,2.9-3.2,4.1-5.1l2-3.4l-39.4,0L42,26
		c-10.1-0.8-19.8,5.2-29,18.2L6.9,54.7L6.9,54.7z"/>
	<path class="st0" d="M32.7,42c-11-0.8-19.6,3.5-25.8,12.7l-4.8,8.3l2.1,0c11-0.3,19-4.7,24-13.2l0-0.1c3-5.2,9.4-7.8,19.3-7.8H32.7
		L32.7,42z"/>
</g>
</svg>
