<svg id="Layer_1" data-name="Layer 1" xmlns="http://www.w3.org/2000/svg" viewBox="0 0 999.94 977.02"><defs><style>.cls-1{fill:#50baea;}</style></defs><title>properties</title><path class="cls-1" d="M356.26,11H85.12A85.46,85.46,0,0,0,0,96.12V367a85.46,85.46,0,0,0,85.06,85.85H356a85.46,85.46,0,0,0,85.34-85.34V96.12A85.46,85.46,0,0,0,356.26,11ZM69.85,96.12A15.5,15.5,0,0,1,85.29,80.68H356.2a15.5,15.5,0,0,1,15.44,15.44V367a15.5,15.5,0,0,1-15.44,15.44H85.12A15.5,15.5,0,0,1,69.68,367V96.12h0.17Z" transform="translate(0 -11)"/><path class="cls-1" d="M914.65,11h-271a85.46,85.46,0,0,0-85.34,85.12V367a85.46,85.46,0,0,0,85.06,85.84h271.2a85.46,85.46,0,0,0,85.34-85.34V96.12A85.46,85.46,0,0,0,914.65,11ZM628.24,96.12a15.5,15.5,0,0,1,15.44-15.44H914.59A15.5,15.5,0,0,1,930,96.12V367a15.5,15.5,0,0,1-15.44,15.44H643.68A15.5,15.5,0,0,1,628.24,367V96.12h0Z" transform="translate(0 -11)"/><path class="cls-1" d="M356.26,546.14H85.12A85.46,85.46,0,0,0,0,631.26V902.18A85.46,85.46,0,0,0,85.06,988H356a85.46,85.46,0,0,0,85.34-85.34V631.26A85.46,85.46,0,0,0,356.26,546.14ZM69.85,631.26a15.5,15.5,0,0,1,15.44-15.44H356.2a15.5,15.5,0,0,1,15.44,15.44V902.18a15.5,15.5,0,0,1-15.44,15.44H85.12a15.5,15.5,0,0,1-15.44-15.44V631.26h0.17Z" transform="translate(0 -11)"/><path class="cls-1" d="M914.65,546.14h-271a85.46,85.46,0,0,0-85.34,85.12V902.18A85.46,85.46,0,0,0,643.4,988h271.2a85.46,85.46,0,0,0,85.34-85.34V631.26A85.46,85.46,0,0,0,914.65,546.14ZM628.24,631.26a15.5,15.5,0,0,1,15.44-15.44H914.59A15.5,15.5,0,0,1,930,631.26V902.18a15.5,15.5,0,0,1-15.44,15.44H643.68a15.5,15.5,0,0,1-15.44-15.44V631.26h0Z" transform="translate(0 -11)"/></svg>