<svg width="23px" height="23px" viewBox="0 0 23 23" version="1.1" xmlns="http://www.w3.org/2000/svg" xmlns:xlink="http://www.w3.org/1999/xlink">
    <!-- Generator: Sketch 50.2 (55047) - http://www.bohemiancoding.com/sketch -->
    <desc>Created with Sketch.</desc>
    <defs></defs>
    <g id="Step-2" stroke="none" stroke-width="1" fill="none" fill-rule="evenodd">
        <g id="Desktop-HD" transform="translate(-24.000000, -971.000000)" fill="#4ABAEE" fill-rule="nonzero">
            <g id="logout" transform="translate(24.000000, 971.000000)">
                <path d="M11.642701,21.0833746 L2.91065242,21.0833746 C2.37508362,21.0833746 1.94045016,20.6540224 1.94045016,20.125062 L1.94045016,2.87502817 C1.94045016,2.34602263 2.37512925,1.91671549 2.91065242,1.91671549 L11.642701,1.91671549 C12.179228,1.91671549 12.6129032,1.48835487 12.6129032,0.958402819 C12.6129032,0.428450771 12.179228,0 11.642701,0 L2.91065242,0 C1.30590813,0 0,1.28994962 0,2.87502817 L0,20.1250169 C0,21.7100955 1.30590813,23 2.91065242,23 L11.642701,23 C12.179228,23 12.6129032,22.5716394 12.6129032,22.0416873 C12.6129032,21.5117353 12.179228,21.0833746 11.642701,21.0833746 Z" id="Shape"></path>
                <path d="M22.7112636,11.1917509 L16.8200572,5.46817796 C16.4402248,5.09804685 15.8259309,5.10284734 15.4499721,5.47773407 C15.0740132,5.85262081 15.0778868,6.45645046 15.4596786,6.82658157 L19.6697339,10.9170014 L8.38828048,10.9170014 C7.85245941,10.9170014 7.41935484,11.3433925 7.41935484,11.8709078 C7.41935484,12.3984232 7.85245941,12.8248591 8.38828048,12.8248591 L19.6697339,12.8248591 L15.4596786,16.9152789 C15.0779323,17.28541 15.0750158,17.8892397 15.4499721,18.2641264 C15.6398655,18.4530054 15.8898667,18.5483871 16.1398679,18.5483871 C16.3859956,18.5483871 16.6320778,18.4568189 16.8200572,18.2736377 L22.7112636,12.5500647 C22.8953695,12.3707418 23,12.1265002 23,11.8708629 C23,11.6153154 22.8963265,11.3720608 22.7112636,11.1917509 Z" id="Shape"></path>
            </g>
        </g>
    </g>
</svg>