<svg id="Layer_1" data-name="Layer 1" xmlns="http://www.w3.org/2000/svg" viewBox="0 0 1000 1000"><defs><style>.cls-1{fill:#50baea;}</style></defs><title>add</title><g id="Delete"><path class="cls-1" d="M853.56,146.44C658.3-48.81,341.7-48.81,146.44,146.44s-195.26,511.86,0,707.12,511.86,195.26,707.12,0S1048.81,341.7,853.56,146.44ZM207.93,792.07c-161.3-161.3-161.3-422.84,0-584.14s422.84-161.3,584.14,0,161.3,422.84,0,584.14S369.23,953.37,207.93,792.07ZM713.7,510.88V489.15a32.68,32.68,0,0,0-32.63-32.63H543.49V318.93a32.63,32.63,0,0,0-32.6-32.6l-21.75,0a32.66,32.66,0,0,0-32.62,32.62V456.51H318.93a32.63,32.63,0,0,0-32.6,32.6l0,21.78a32.67,32.67,0,0,0,32.6,32.6l137.6,0,0,137.6a32.72,32.72,0,0,0,32.63,32.63l21.77,0a32.67,32.67,0,0,0,32.6-32.6l0-137.6,137.6,0A32.7,32.7,0,0,0,713.7,510.88Z" transform="translate(0 0)"/></g></svg>