<svg id="Layer_1" data-name="Layer 1" xmlns="http://www.w3.org/2000/svg" viewBox="0 0 1000 1000"><defs><style>.cls-1{fill:#50baea;}</style></defs><title>user</title><path class="cls-1" d="M853.55,646.45a498.08,498.08,0,0,0-190-119.18C739.3,475.1,789.06,387.79,789.06,289.06,789.06,129.67,659.39,0,500,0S210.94,129.67,210.94,289.06c0,98.73,49.76,186,125.51,238.21a498.08,498.08,0,0,0-190,119.18C52,740.88,0,866.45,0,1000H78.13c0-232.62,189.25-421.87,421.88-421.87S921.88,767.38,921.88,1000H1000C1000,866.45,948,740.88,853.55,646.45ZM500,500c-116.31,0-210.94-94.62-210.94-210.94S383.69,78.13,500,78.13s210.94,94.62,210.94,210.94S616.31,500,500,500Z"/></svg>