<svg id="Layer_1" data-name="Layer 1" xmlns="http://www.w3.org/2000/svg" viewBox="0 0 997.89 1000"><defs><style>.cls-1{fill:#50baea;}</style></defs><title>edit-blue</title><path class="cls-1" d="M1.05,750L0,955.7a44.66,44.66,0,0,0,12.66,31.65A42.25,42.25,0,0,0,43.25,1000l204.64-1.05a42.25,42.25,0,0,0,30.59-12.66L985.23,279.54c16.88-16.88,16.88-44.3,0-62.24L782.7,12.66c-16.88-16.88-44.3-16.88-62.24,0L579.11,155.06,13.71,719.41C6.33,727.85,1.05,738.4,1.05,750h0ZM752.11,105.49L894.51,247.89l-80.17,80.17L671.94,185.65ZM88.61,769l521.1-521.1L752.11,390.3,231,910.34,87.55,911.39,88.61,769h0Z"/></svg>