<svg width="22px" height="23px" viewBox="0 0 22 23" version="1.1" xmlns="http://www.w3.org/2000/svg" xmlns:xlink="http://www.w3.org/1999/xlink">
    <!-- Generator: Sketch 50.2 (55047) - http://www.bohemiancoding.com/sketch -->
    <desc>Created with Sketch.</desc>
    <defs></defs>
    <g id="Step-3" stroke="none" stroke-width="1" fill="none" fill-rule="evenodd">
        <g id="Desktop-HD" transform="translate(-396.000000, -27.000000)" fill="#9B9B9B" fill-rule="nonzero">
            <g id="edit-button" transform="translate(396.000000, 27.000000)">
                <path d="M0.023499992,16.5388531 L6.18588135e-05,21.0741319 C-0.00285410362,21.3344753 0.0974249695,21.5853836 0.278975644,21.7720023 C0.456501377,21.9528228 0.700021624,22.0535315 0.953407927,22.0509161 L5.46524857,22.0274779 C5.71866538,22.0305615 5.96240248,21.9302738 6.1402668,21.7497361 L21.7207658,6.16337749 C22.0930781,5.78170081 22.0930781,5.17275148 21.7207658,4.7910748 L17.2558015,0.279234156 C16.8741248,-0.0930780521 16.2651755,-0.0930780521 15.8834988,0.279234156 L12.767399,3.4187721 L0.30299973,15.8644208 C0.131296016,16.0479557 0.0321686998,16.2876522 0.0240859453,16.5388531 L0.023499992,16.5388531 Z M16.5825411,2.3288989 L19.722079,5.46843685 L17.9548438,7.23567209 L14.8153059,4.09613415 L16.5825411,2.3288989 Z M1.95421621,16.9572238 L13.4430032,5.46843685 L16.5825411,8.60797479 L5.09375416,20.0733236 L1.92960617,20.0967617 L1.95304431,16.9572238 L1.95421621,16.9572238 Z" id="Shape"></path>
            </g>
        </g>
    </g>
</svg>