<svg width="22px" height="22px" viewBox="0 0 22 22" version="1.1" xmlns="http://www.w3.org/2000/svg" xmlns:xlink="http://www.w3.org/1999/xlink">
    <!-- Generator: Sketch 50.2 (55047) - http://www.bohemiancoding.com/sketch -->
    <desc>Created with Sketch.</desc>
    <defs></defs>
    <g id="Step-3" stroke="none" stroke-width="1" fill="none" fill-rule="evenodd">
        <g id="Desktop-HD" transform="translate(-1358.000000, -328.000000)" fill="#D0021B" fill-rule="nonzero">
            <g id="Group-8" transform="translate(240.000000, 189.000000)">
                <g id="delete-button" transform="translate(1118.000000, 139.000000)">
                    <g id="Group-11">
                        <path d="M11,0 C4.93459596,0 0,4.93459596 0,11 C0,17.065404 4.93459596,22 11,22 C17.065404,22 22,17.065404 22,11 C22,4.93459596 17.0652778,0 11,0 Z M11,20.1142677 C5.97449495,20.1142677 1.88573232,16.0255051 1.88573232,11 C1.88573232,5.97449495 5.97449495,1.88573232 11,1.88573232 C16.0255051,1.88573232 20.1142677,5.97449495 20.1142677,11 C20.1142677,16.0255051 16.0253788,20.1142677 11,20.1142677 Z" id="Shape"></path>
                        <path d="M15.0419114,6.95795687 C14.6921559,6.60821728 14.1250174,6.60821728 13.7758615,6.95795687 L11,9.73405237 L8.22413854,6.95795687 C7.87438312,6.60821728 7.30784407,6.60821728 6.95808865,6.95795687 C6.60833322,7.30769646 6.60833322,7.87420986 6.95808865,8.22394946 L9.7339501,10.9999251 L6.95796874,13.7760206 C6.60821332,14.1257602 6.60821332,14.6922736 6.95796874,15.0420132 C7.13278651,15.216823 7.36192007,15.3043478 7.59105364,15.3043478 C7.82018721,15.3043478 8.04956058,15.2169429 8.22413854,15.0420132 L11,12.2660376 L13.7758615,15.0420132 C13.9506792,15.216823 14.1798128,15.3043478 14.4089464,15.3043478 C14.6380799,15.3043478 14.8670936,15.2169429 15.0420313,15.0420132 C15.3917867,14.6922736 15.3917867,14.1257602 15.0420313,13.7760206 L12.2660499,11.000045 L15.0419114,8.22406936 C15.3916668,7.87432976 15.3916668,7.30769646 15.0419114,6.95795687 Z" id="Shape"></path>
                    </g>
                </g>
            </g>
        </g>
    </g>
</svg>