<svg id="Layer_1" data-name="Layer 1" xmlns="http://www.w3.org/2000/svg" viewBox="0 0 1000 1000"><defs><style>.cls-1{fill:#9b9a9a;}</style></defs><title>search</title><path class="cls-1" d="M987.76,930.11L747.35,689.7a419.94,419.94,0,0,0,95.51-267.14c0-232.65-188.78-421.43-421.43-421.43C188.57,1.13,0,189.91,0,422.56S188.57,844,421.43,844a419.21,419.21,0,0,0,266.94-95.31l240.41,240.2A41.63,41.63,0,0,0,987.76,930.11Zm-566.33-170c-186.33,0-337.76-151.43-337.76-337.55S235.1,84.8,421.43,84.8c186.12,0,337.76,151.63,337.76,337.76S607.55,760.11,421.43,760.11Z" transform="translate(0 -1.13)"/></svg>