<svg id="Layer_1" data-name="Layer 1" xmlns="http://www.w3.org/2000/svg" viewBox="0 0 998.84 995.52"><defs><style>.cls-1{fill:#50baea;}</style></defs><title>logout</title><path class="cls-1" d="M498.76,914.56H125.44A41.49,41.49,0,0,1,84,873.08V126.44A41.49,41.49,0,0,1,125.44,85H498.76a41.48,41.48,0,0,0,0-83H125.44A124.59,124.59,0,0,0,1,126.44V873.08A124.59,124.59,0,0,0,125.44,997.52H498.76A41.48,41.48,0,0,0,498.76,914.56Z" transform="translate(-1 -2)"/><path class="cls-1" d="M987.47,470.23L735.28,221.35A41.47,41.47,0,1,0,677,280.41L857.27,458.28h-483a41.48,41.48,0,0,0,0,83h483L677,719.1a41.47,41.47,0,1,0,58.24,59.07l252.2-248.88A41.46,41.46,0,0,0,987.47,470.23Z" transform="translate(-1 -2)"/></svg>