<svg width="22px" height="22px" viewBox="0 0 22 22" version="1.1" xmlns="http://www.w3.org/2000/svg" xmlns:xlink="http://www.w3.org/1999/xlink">
    <!-- Generator: Sketch 50.2 (55047) - http://www.bohemiancoding.com/sketch -->
    <desc>Created with Sketch.</desc>
    <defs></defs>
    <g id="Step-2" stroke="none" stroke-width="1" fill="none" fill-rule="evenodd">
        <g id="Desktop-HD" transform="translate(-23.000000, -251.000000)" fill="#4ABAEE" fill-rule="nonzero">
            <g id="Group-7" transform="translate(23.000000, 251.000000)">
                <g id="icon-properties">
                    <path d="M8.0194125,0 L1.91609152,0 C0.859588707,0.00412233399 0.0041471604,0.85859438 2.01491262e-05,1.91389982 L2.01491262e-05,8.00529021 C-0.00231430509,8.51510034 0.198286314,9.00493785 0.557656335,9.36695659 C0.917026356,9.72897532 1.40570149,9.93349384 1.91609152,9.93548387 L8.01439332,9.93548387 C9.07480914,9.93410289 9.93410132,9.07578457 9.93548387,8.01657056 L9.93548387,1.91389982 C9.93135686,0.85859438 9.07591531,0.00412233399 8.0194125,0 Z M1.5722778,1.91389982 C1.57296605,1.72244077 1.72817962,1.56740311 1.9198559,1.56671564 L8.01815771,1.56671564 C8.20983399,1.56740311 8.36504756,1.72244077 8.36573581,1.91389982 L8.36573581,8.00529021 C8.36504756,8.19674926 8.20983399,8.35178692 8.01815771,8.35247439 L1.91609152,8.35247439 C1.72441524,8.35178692 1.56920166,8.19674926 1.56851341,8.00529021 L1.56851341,1.91389982 L1.5722778,1.91389982 Z" id="Shape"></path>
                    <path d="M20.0811336,0 L13.9846568,0 C12.9267288,0.00137124502 12.0686759,0.856644225 12.0645362,1.91389982 L12.0645362,8.00529021 C12.0622024,8.51596681 12.2633894,9.00656367 12.6236628,9.36872704 C12.9839361,9.73089042 13.473654,9.93482295 13.9846568,9.93548387 L20.0798794,9.93548387 C21.1397598,9.93410289 21.9986181,9.07578457 22,8.01657056 L22,1.91389982 C21.9958633,0.85713234 21.138572,0.00205996763 20.0811336,0 Z M13.6372542,1.91389982 C13.6379421,1.72244077 13.7930773,1.56740311 13.9846568,1.56671564 L20.0798794,1.56671564 C20.2714589,1.56740311 20.4265941,1.72244077 20.4272821,1.91389982 L20.4272821,8.00529021 C20.4265941,8.19674926 20.2714589,8.35178692 20.0798794,8.35247439 L13.9846568,8.35247439 C13.7930773,8.35178692 13.6379421,8.19674926 13.6372542,8.00529021 L13.6372542,1.91389982 Z" id="Shape"></path>
                    <path d="M8.0194125,11.3548387 L1.91609152,11.3548387 C0.859588707,11.358961 0.0041471604,12.2134331 2.01491262e-05,13.2687385 L2.01491262e-05,19.3601289 C-0.00231430509,19.8699391 0.198286314,20.3597766 0.557656335,20.7217953 C0.917026356,21.083814 1.40570149,21.2883325 1.91609152,21.2903226 L8.01439332,21.2903226 C9.07480914,21.2889416 9.93410132,20.4306233 9.93548387,19.3714093 L9.93548387,13.2687385 C9.93135686,12.2134331 9.07591531,11.358961 8.0194125,11.3548387 Z M1.5722778,13.2687385 C1.57296605,13.0772795 1.72817962,12.9222418 1.9198559,12.9215543 L8.01815771,12.9215543 C8.20983399,12.9222418 8.36504756,13.0772795 8.36573581,13.2687385 L8.36573581,19.3601289 C8.36504756,19.551588 8.20983399,19.7066256 8.01815771,19.7073131 L1.91609152,19.7073131 C1.72441524,19.7066256 1.56920166,19.551588 1.56851341,19.3601289 L1.56851341,13.2687385 L1.5722778,13.2687385 Z" id="Shape"></path>
                    <path d="M20.0811336,11.3548387 L13.9846568,11.3548387 C12.9267288,11.35621 12.0686759,12.2114829 12.0645362,13.2687385 L12.0645362,19.3601289 C12.0622024,19.8708055 12.2633894,20.3614024 12.6236628,20.7235658 C12.9839361,21.0857291 13.473654,21.2896617 13.9846568,21.2903226 L20.0798794,21.2903226 C21.1397598,21.2889416 21.9986181,20.4306233 22,19.3714093 L22,13.2687385 C21.9958633,12.211971 21.138572,11.3568987 20.0811336,11.3548387 Z M13.6372542,13.2687385 C13.6379421,13.0772795 13.7930773,12.9222418 13.9846568,12.9215543 L20.0798794,12.9215543 C20.2714589,12.9222418 20.4265941,13.0772795 20.4272821,13.2687385 L20.4272821,19.3601289 C20.4265941,19.551588 20.2714589,19.7066256 20.0798794,19.7073131 L13.9846568,19.7073131 C13.7930773,19.7066256 13.6379421,19.551588 13.6372542,19.3601289 L13.6372542,13.2687385 Z" id="Shape"></path>
                </g>
            </g>
        </g>
    </g>
</svg>