<svg width="22px" height="22px" viewBox="0 0 22 22" version="1.1" xmlns="http://www.w3.org/2000/svg" xmlns:xlink="http://www.w3.org/1999/xlink">
    <!-- Generator: Sketch 50.2 (55047) - http://www.bohemiancoding.com/sketch -->
    <desc>Created with Sketch.</desc>
    <defs></defs>
    <g id="Step-2" stroke="none" stroke-width="1" fill="none" fill-rule="evenodd">
        <g id="Desktop-HD" transform="translate(-23.000000, -330.000000)" fill="#4ABAEE" fill-rule="nonzero">
            <g id="Group-5" transform="translate(23.000000, 330.000000)">
                <g id="user">
                    <path d="M18.7782031,14.2217969 C17.5801055,13.0237422 16.1540586,12.1368242 14.5981602,11.5999297 C16.2645742,10.4521914 17.359375,8.53135937 17.359375,6.359375 C17.359375,2.85282422 14.5065508,0 11,0 C7.49344922,0 4.640625,2.85282422 4.640625,6.359375 C4.640625,8.53135937 5.73542578,10.4521914 7.40188281,11.5999297 C5.84598437,12.1368242 4.4199375,13.0237422 3.22183984,14.2217969 C1.14421484,16.2994648 0,19.0617969 0,22 L1.71875,22 C1.71875,16.882293 5.88229297,12.71875 11,12.71875 C16.117707,12.71875 20.28125,16.882293 20.28125,22 L22,22 C22,19.0617969 20.8557852,16.2994648 18.7782031,14.2217969 Z M11,11 C8.44116797,11 6.359375,8.91825 6.359375,6.359375 C6.359375,3.8005 8.44116797,1.71875 11,1.71875 C13.558832,1.71875 15.640625,3.8005 15.640625,6.359375 C15.640625,8.91825 13.558832,11 11,11 Z" id="Shape"></path>
                </g>
            </g>
        </g>
    </g>
</svg>