<?xml version="1.0" encoding="utf-8"?>
<!-- Generator: Adobe Illustrator 19.2.1, SVG Export Plug-In . SVG Version: 6.00 Build 0)  -->
<svg version="1.1" id="Layer_1" xmlns="http://www.w3.org/2000/svg" xmlns:xlink="http://www.w3.org/1999/xlink" x="0px" y="0px"
	 viewBox="0 0 25 25" style="enable-background:new 0 0 25 25;" xml:space="preserve">
<style type="text/css">
	.st0{fill:#4ABAEE;}
</style>
<path class="st0" d="M24.6,24.2h-2.5V10.4c0-0.2-0.2-0.4-0.4-0.4h-5.8V0.4c0-0.2-0.2-0.4-0.4-0.4H4.6C4.4,0,4.2,0.2,4.2,0.4v23.8
	H0.4c-0.2,0-0.4,0.2-0.4,0.4S0.2,25,0.4,25h24.2c0.2,0,0.4-0.2,0.4-0.4S24.8,24.2,24.6,24.2z M8.8,24.2H7.1v-3.8
	c0-0.2,0.2-0.4,0.4-0.4h0.8c0.2,0,0.4,0.2,0.4,0.4V24.2z M10.4,10.4v13.8H9.6v-3.8c0-0.7-0.6-1.2-1.2-1.2H7.5
	c-0.7,0-1.2,0.6-1.2,1.2v3.8H5V0.8h10V10h-4.2C10.6,10,10.4,10.2,10.4,10.4z M21.2,24.2h-10V10.8h10V24.2z"/>
<path class="st0" d="M13.3,5.8h-2.5c-0.2,0-0.4,0.2-0.4,0.4v2.5c0,0.2,0.2,0.4,0.4,0.4h2.5c0.2,0,0.4-0.2,0.4-0.4V6.2
	C13.8,6,13.6,5.8,13.3,5.8z M12.9,8.3h-1.7V6.7h1.7V8.3z"/>
<path class="st0" d="M13.3,1.7h-2.5c-0.2,0-0.4,0.2-0.4,0.4v2.5c0,0.2,0.2,0.4,0.4,0.4h2.5c0.2,0,0.4-0.2,0.4-0.4V2.1
	C13.8,1.9,13.6,1.7,13.3,1.7z M12.9,4.2h-1.7V2.5h1.7V4.2z"/>
<path class="st0" d="M9.2,5.8H6.7C6.4,5.8,6.2,6,6.2,6.2v2.5c0,0.2,0.2,0.4,0.4,0.4h2.5c0.2,0,0.4-0.2,0.4-0.4V6.2
	C9.6,6,9.4,5.8,9.2,5.8z M8.8,8.3H7.1V6.7h1.7V8.3z"/>
<path class="st0" d="M9.2,1.7H6.7c-0.2,0-0.4,0.2-0.4,0.4v2.5C6.2,4.8,6.4,5,6.7,5h2.5c0.2,0,0.4-0.2,0.4-0.4V2.1
	C9.6,1.9,9.4,1.7,9.2,1.7z M8.8,4.2H7.1V2.5h1.7V4.2z"/>
<path class="st0" d="M9.2,10H6.7c-0.2,0-0.4,0.2-0.4,0.4v2.5c0,0.2,0.2,0.4,0.4,0.4h2.5c0.2,0,0.4-0.2,0.4-0.4v-2.5
	C9.6,10.2,9.4,10,9.2,10z M8.8,12.5H7.1v-1.7h1.7V12.5z"/>
<path class="st0" d="M9.2,14.2H6.7c-0.2,0-0.4,0.2-0.4,0.4v2.5c0,0.2,0.2,0.4,0.4,0.4h2.5c0.2,0,0.4-0.2,0.4-0.4v-2.5
	C9.6,14.4,9.4,14.2,9.2,14.2z M8.8,16.7H7.1V15h1.7V16.7z"/>
<path class="st0" d="M19.6,15.8h-2.5c-0.2,0-0.4,0.2-0.4,0.4v2.5c0,0.2,0.2,0.4,0.4,0.4h2.5c0.2,0,0.4-0.2,0.4-0.4v-2.5
	C20,16,19.8,15.8,19.6,15.8z M19.2,18.3h-1.7v-1.7h1.7V18.3z"/>
<path class="st0" d="M19.6,11.7h-2.5c-0.2,0-0.4,0.2-0.4,0.4v2.5c0,0.2,0.2,0.4,0.4,0.4h2.5c0.2,0,0.4-0.2,0.4-0.4v-2.5
	C20,11.9,19.8,11.7,19.6,11.7z M19.2,14.2h-1.7v-1.7h1.7V14.2z"/>
<path class="st0" d="M19.6,20h-2.5c-0.2,0-0.4,0.2-0.4,0.4v2.5c0,0.2,0.2,0.4,0.4,0.4h2.5c0.2,0,0.4-0.2,0.4-0.4v-2.5
	C20,20.2,19.8,20,19.6,20z M19.2,22.5h-1.7v-1.7h1.7V22.5z"/>
<path class="st0" d="M15.4,15.8h-2.5c-0.2,0-0.4,0.2-0.4,0.4v2.5c0,0.2,0.2,0.4,0.4,0.4h2.5c0.2,0,0.4-0.2,0.4-0.4v-2.5
	C15.8,16,15.6,15.8,15.4,15.8z M15,18.3h-1.7v-1.7H15V18.3z"/>
<path class="st0" d="M15.4,11.7h-2.5c-0.2,0-0.4,0.2-0.4,0.4v2.5c0,0.2,0.2,0.4,0.4,0.4h2.5c0.2,0,0.4-0.2,0.4-0.4v-2.5
	C15.8,11.9,15.6,11.7,15.4,11.7z M15,14.2h-1.7v-1.7H15V14.2z"/>
<path class="st0" d="M15.4,20h-2.5c-0.2,0-0.4,0.2-0.4,0.4v2.5c0,0.2,0.2,0.4,0.4,0.4h2.5c0.2,0,0.4-0.2,0.4-0.4v-2.5
	C15.8,20.2,15.6,20,15.4,20z M15,22.5h-1.7v-1.7H15V22.5z"/>
</svg>
