<?xml version="1.0" encoding="UTF-8"?>
<svg width="40px" height="40px" viewBox="0 0 40 40" version="1.1" xmlns="http://www.w3.org/2000/svg" xmlns:xlink="http://www.w3.org/1999/xlink">
    <!-- Generator: Sketch 49 (51002) - http://www.bohemiancoding.com/sketch -->
    <title>Group 4</title>
    <desc>Created with Sketch.</desc>
    <defs></defs>
    <g id="Step-3" stroke="none" stroke-width="1" fill="none" fill-rule="evenodd">
        <g id="Desktop-HD" transform="translate(-1292.000000, -17.000000)">
            <g id="Group-4" transform="translate(1292.000000, 17.000000)">
                <rect id="bkg" stroke="#9B9B9B" stroke-width="2" x="1" y="1" width="38" height="38" rx="5"></rect>
                <path d="M29.4084022,20.7720385 C29.4084022,19.9515697 28.7480248,19.2711809 27.9075446,19.2711809 L21.3638053,19.2711809 L21.3638053,12.7274416 C21.3638053,11.9069728 20.7034279,11.226584 19.8629476,11.226584 C19.0424788,11.226584 18.36209,11.8869614 18.36209,12.7274416 L18.36209,19.2711809 L11.8183507,19.2711809 C10.9978819,19.2711809 10.3174931,19.9315583 10.3174931,20.7720385 C10.3174931,21.1922787 10.4775846,21.5524845 10.7577447,21.8326446 C11.0379048,22.1128047 11.3981106,22.2728962 11.8183507,22.2728962 L18.36209,22.2728962 L18.36209,28.8166355 C18.36209,29.2368756 18.5221815,29.5970814 18.8023416,29.8772415 C19.0825017,30.1574016 19.4427075,30.3174931 19.8629476,30.3174931 C20.6834165,30.3174931 21.3638053,29.6571157 21.3638053,28.8166355 L21.3638053,22.2728962 L27.9075446,22.2728962 C28.7280134,22.2728962 29.4084022,21.5925074 29.4084022,20.7720385 Z" id="Shape" fill="#9B9B9B" fill-rule="nonzero" transform="translate(19.862948, 20.772039) rotate(45.000000) translate(-19.862948, -20.772039) "></path>
            </g>
        </g>
    </g>
</svg>