<svg width="26px" height="23px" viewBox="0 0 26 23" version="1.1" xmlns="http://www.w3.org/2000/svg" xmlns:xlink="http://www.w3.org/1999/xlink">
    <!-- Generator: Sketch 50.2 (55047) - http://www.bohemiancoding.com/sketch -->
    <desc>Created with Sketch.</desc>
    <defs></defs>
    <g id="Step-2" stroke="none" stroke-width="1" fill="none" fill-rule="evenodd">
        <g id="Desktop-HD" transform="translate(-21.000000, -206.000000)" fill="#4ABAEE">
            <g id="Group-6" transform="translate(21.000000, 206.000000)">
                <path d="M24.7151236,14.3919216 C24.7151236,14.4877025 24.6404053,14.5624208 24.5442911,14.5624208 L18.2843431,14.5624208 C18.1882957,14.5624208 18.1138439,14.4877025 18.1138439,14.3919216 L18.1138439,11.1550357 C18.1138439,11.0644538 18.1882957,10.9845364 18.2843431,10.9845364 L24.5442911,10.9845364 C24.6352063,10.9845364 24.7151236,11.0592548 24.7151236,11.1550357 L24.7151236,14.3919216 Z M22.6462707,19.5588216 C22.6462707,20.3693928 21.9849363,21.0304606 21.1744318,21.0304606 L1.85042991,21.0304606 C1.53562621,21.0304606 1.27447844,20.7745118 1.27447844,20.4545091 L1.27447844,4.29234153 C1.57315204,4.43637939 1.90355262,4.51656335 2.25554889,4.51656335 L21.1744318,4.51656335 C21.9849363,4.51656335 22.6462707,5.17763114 22.6462707,5.98813571 L22.6462707,9.70485903 L18.2788776,9.70485903 C17.4790375,9.70485903 16.8286343,10.3551956 16.8286343,11.1550357 L16.8286343,14.3919216 C16.8286343,15.1917616 17.4790375,15.8421649 18.2788776,15.8421649 L22.6462707,15.8421649 L22.6462707,19.5588216 Z M2.25554889,1.2796774 L18.753516,1.2796774 C19.0680531,1.2796774 19.3294674,1.53562621 19.3294674,1.85042991 L19.3242685,3.23661934 L2.25554889,3.23661934 C1.71712324,3.23661934 1.2796774,2.79944011 1.2796774,2.26101446 C1.2796774,1.7223222 1.71712324,1.2796774 2.25554889,1.2796774 Z M24.5442911,9.70485903 L23.9259481,9.70485903 L23.9259481,5.98813571 C23.9259481,4.46837299 22.6886623,3.23661934 21.1744318,3.23661934 L20.6039459,3.23661934 L20.6091448,1.85562887 C20.6091448,0.831833633 19.7773112,0 18.753516,0 L2.25554889,0 C1.02372859,0 0.015863494,0.991734986 0,2.22348864 L0,20.4599747 C0,21.4837033 0.831833633,22.3156035 1.85562887,22.3156035 L21.1798974,22.3156035 C22.6993935,22.3156035 23.9311471,21.0783177 23.9311471,19.5640872 L23.9311471,15.8421649 L24.5497567,15.8421649 C25.3495967,15.8421649 26,15.1917616 26,14.3919216 L26,11.1550357 C25.994801,10.3551956 25.3441312,9.70485903 24.5442911,9.70485903 Z" id="Fill-1"></path>
            </g>
        </g>
    </g>
</svg>