<svg id="Layer_1" data-name="Layer 1" xmlns="http://www.w3.org/2000/svg" viewBox="0 0 1000 1000"><defs><style>.cls-1{fill:#d02027;}</style></defs><title>delete</title><g id="Delete"><path class="cls-1" d="M499.5,0C223.37,0-.5,223.87-0.5,500s223.87,500,500,500,500-223.87,500-500S775.63,0,499.5,0Zm0,913c-228.11,0-413-184.93-413-413S271.4,87,499.5,87s413,184.93,413,413S727.61,913,499.5,913Zm158.8-556.46-15.37-15.37a32.68,32.68,0,0,0-46.15,0L499.5,438.5l-97.28-97.28a32.63,32.63,0,0,0-46.11,0l-15.39,15.37a32.66,32.66,0,0,0,0,46.13L438,500l-97.28,97.28a32.63,32.63,0,0,0,0,46.11l15.39,15.41a32.67,32.67,0,0,0,46.11,0l97.28-97.3,97.28,97.3a32.72,32.72,0,0,0,46.15,0l15.37-15.41a32.67,32.67,0,0,0,0-46.11L561,500l97.3-97.28A32.7,32.7,0,0,0,658.31,356.59Z" transform="translate(0.5)"/></g></svg>