<?xml version="1.0" encoding="UTF-8"?>
<svg width="40px" height="40px" viewBox="0 0 40 40" version="1.1" xmlns="http://www.w3.org/2000/svg" xmlns:xlink="http://www.w3.org/1999/xlink">
    <!-- Generator: Sketch 49 (51002) - http://www.bohemiancoding.com/sketch -->
    <title>Group 8</title>
    <desc>Created with Sketch.</desc>
    <defs></defs>
    <g id="Step-3" stroke="none" stroke-width="1" fill="none" fill-rule="evenodd">
        <g id="Desktop-HD" transform="translate(-1237.000000, -17.000000)">
            <g id="Group-8" transform="translate(1237.000000, 17.000000)">
                <rect id="bkg" stroke="#9B9B9B" stroke-width="2" x="1" y="1" width="38" height="38" rx="5"></rect>
                <g id="edit-button" transform="translate(9.090909, 10.000000)" fill="#9B9B9B" fill-rule="nonzero">
                    <path d="M0.0213636291,15.035321 L5.6235285e-05,19.1583017 C-0.00259463965,19.3949775 0.088568154,19.623076 0.253614222,19.7927294 C0.415001252,19.9571117 0.636383295,20.048665 0.866734479,20.0462873 L4.96840779,20.02498 C5.19878671,20.0277831 5.42036589,19.9366125 5.58206073,19.7724873 L19.7461508,5.60307045 C20.0846164,5.25609164 20.0846164,4.70250135 19.7461508,4.35552254 L15.6870922,0.253849233 C15.3401134,-0.084616411 14.7865231,-0.084616411 14.4395443,0.253849233 L11.6067263,3.10797463 L0.2754543,14.4222007 C0.119360014,14.5890506 0.0292442726,14.8069566 0.0218963139,15.035321 L0.0213636291,15.035321 Z M15.0750374,2.11718082 L17.9291628,4.97130622 L16.3225853,6.57788372 L13.4684599,3.72375832 L15.0750374,2.11718082 Z M1.77656019,15.415658 L12.220912,4.97130622 L15.0750374,7.82543162 L4.6306856,18.248476 L1.75418743,18.2697834 L1.77549482,15.415658 L1.77656019,15.415658 Z" id="Shape"></path>
                </g>
            </g>
        </g>
    </g>
</svg>