<svg width="32px" height="32px" viewBox="0 0 32 32" version="1.1" xmlns="http://www.w3.org/2000/svg" xmlns:xlink="http://www.w3.org/1999/xlink">
    <!-- Generator: Sketch 50.2 (55047) - http://www.bohemiancoding.com/sketch -->
    <desc>Created with Sketch.</desc>
    <defs></defs>
    <g id="Step-2" stroke="none" stroke-width="1" fill="none" fill-rule="evenodd">
        <g id="Desktop-HD" transform="translate(-1231.000000, -115.000000)">
            <g id="Group-2" transform="translate(1231.000000, 115.000000)">
                <path d="M16,32 C7.16341878,32 0,24.8365812 0,16 C0,7.16341878 7.16341878,0 16,0 C24.8365812,0 32,7.16341878 32,16 C32,24.8365812 24.8365812,32 16,32 Z" id="Fill-1" fill="#4ABAEE"></path>
                <path d="M23,16 C23,15.3983229 22.5157233,14.8993711 21.8993711,14.8993711 L17.1006289,14.8993711 L17.1006289,10.1006289 C17.1006289,9.49895178 16.6163522,9 16,9 C15.3983229,9 14.8993711,9.48427673 14.8993711,10.1006289 L14.8993711,14.8993711 L10.1006289,14.8993711 C9.49895178,14.8993711 9,15.3836478 9,16 C9,16.3081761 9.11740042,16.572327 9.32285115,16.7777778 C9.52830189,16.9832285 9.79245283,17.1006289 10.1006289,17.1006289 L14.8993711,17.1006289 L14.8993711,21.8993711 C14.8993711,22.2075472 15.0167715,22.4716981 15.2222222,22.6771488 C15.427673,22.8825996 15.6918239,23 16,23 C16.6016771,23 17.1006289,22.5157233 17.1006289,21.8993711 L17.1006289,17.1006289 L21.8993711,17.1006289 C22.5010482,17.1006289 23,16.6016771 23,16 Z" id="Shape" fill="#FFFFFF" fill-rule="nonzero"></path>
            </g>
        </g>
    </g>
</svg>