<svg width="237px" height="56px" viewBox="0 0 237 56" version="1.1" xmlns="http://www.w3.org/2000/svg" xmlns:xlink="http://www.w3.org/1999/xlink">
    <!-- Generator: Sketch 49 (51002) - http://www.bohemiancoding.com/sketch -->
    <desc>Created with Sketch.</desc>
    <defs></defs>
    <g id="Step-2" stroke="none" stroke-width="1" fill="none" fill-rule="evenodd">
        <g id="Desktop-HD" transform="translate(-40.000000, -22.000000)">
            <g id="top-bar">
                <g id="logo" transform="translate(40.000000, 22.000000)">
                    <g id="feesimple-outline-logo" fill="#2B8ACB">
                        <path d="M26.7768387,37.099458 C28.2317511,37.0560991 29.7734061,37.0758077 31.4136325,37.1625255 C27.8650658,38.3174491 25.1957551,40.2055325 23.4530146,43.1618216 C18.7215923,51.1753361 11.2301738,54.6440487 1.84224347,54.6401103 C2.85161355,52.7204899 3.85704078,50.9585416 4.89401082,49.354262 C9.95268977,41.5417752 15.8196534,37.4423876 26.7728959,37.099458 L26.7768387,37.099458 Z M20.2435332,24.3874147 C25.4717547,18.6837474 32.1312316,15.6643908 40.4979632,15.6762159 L74.441975,15.6762159 C81.3695657,15.3372281 87.1458437,12.6371507 91.664352,7.39860632 C93.7343492,4.99809953 94.3809769,3.66579855 95.9108035,1.00908003 C96.030205,0.800711338 96.0296988,0.544571753 95.9094747,0.336676315 C95.7892506,0.128780876 95.5674674,0.000530348723 95.3272614,0 L50.4891499,0 C44.2489296,0.0946012529 38.7985941,1.47683067 34.1381432,4.14668825 C29.4776922,6.81654583 25.6307831,10.7648342 22.5974157,15.9915535 L18.5875354,22.9329204 C18.3315989,23.3953638 18.432705,23.9736166 18.830385,24.3218424 C19.228065,24.6700682 19.8147624,24.6940859 20.2395903,24.3795312 L20.2435332,24.3874147 Z M74.3788894,14.3281481 L40.5097918,14.3281481 C34.2012288,14.3281481 28.6812362,15.9442528 23.8906711,19.3617231 C27.7888293,15.6426275 32.4646161,12.8355382 37.5802528,11.1432392 C52.2003476,6.11754769 72.0131783,8.01351446 86.818587,10.0986837 C86.2099988,10.545531 85.5782655,10.9599869 84.9260181,11.3403252 C81.7063458,13.1737207 78.0898639,14.1989753 74.3867751,14.3281481 L74.3788894,14.3281481 Z M23.7447856,17.6352502 L22.7275298,18.5970296 L22.5658729,18.7546984 L23.6974714,16.783839 C26.6467246,11.6950799 30.282034,7.90708806 34.8123708,5.30949532 C39.2809363,2.75263368 44.5131007,1.42821614 50.5088641,1.3362427 L94.1601772,1.3362427 L92.9773217,3.3622862 C91.6625577,5.42419168 90.0705152,7.29563034 88.2458994,8.92405152 L83.7628768,8.30914338 C70.5582659,6.66938833 56.608456,5.49081439 43.4472164,8.13176603 C36.1884261,9.58626029 29.2529497,12.6213838 23.7329571,17.6234251 L23.7447856,17.6352502 Z M28.1371226,35.8144577 L55.9381712,35.8144577 C58.7580531,35.6944537 61.5333387,35.0682579 64.1314174,33.9657915 C66.1972928,33.0669658 68.1071196,31.8455601 69.7894098,30.3472936 L59.4946236,29.4564651 C54.5463445,29.1371859 49.5980654,28.9834589 44.6773862,29.1411276 C35.3683129,29.4525234 25.6334117,30.9070177 17.586051,35.8893503 L15.0823401,37.6000563 L13.7023419,38.6919124 L14.6367978,38.207081 C18.5980496,36.2572441 23.0981579,35.4623308 28.1371226,35.8223411 L28.1371226,35.8144577 Z M71.0668938,29.121419 C73.0383197,27.1072007 74.2527181,25.1560498 75.6051163,22.8383191 L36.3106545,22.8383191 C28.7798075,22.2352362 22.7866726,25.6605899 17.8502221,30.6508059 C15.2934139,33.3098155 12.9949307,36.205521 10.985717,39.2989371 C15.9300532,34.5688745 21.7339312,31.6677694 28.3342652,29.9373548 C41.3062479,26.5356514 58.0278827,27.6984585 71.0826652,29.121419 L71.0668938,29.121419 Z M76.7367148,21.4823678 L36.4131687,21.4823678 C28.4131222,20.8398677 22.0809021,24.438657 16.8881662,29.69691 C11.782173,34.8605617 7.81960691,41.6166678 4.42481145,47.4701204 L4.38144008,47.5410713 L0.0916172406,54.9869783 C0.00150226205,55.1416558 -0.0233681484,55.3258157 0.0224905883,55.4988457 C0.0683493251,55.6718757 0.181170492,55.8195637 0.336074057,55.9093405 L2.57955677,56 C7.61852147,55.8817484 11.9753728,54.8122287 15.6501107,52.7914408 C19.4070868,50.695296 22.5124251,47.603126 24.6240416,43.8555642 C27.6955232,38.4751179 34.8123708,37.1901175 41.3693335,37.1743507 L56.0091425,37.1743507 C58.9956362,37.0445432 61.9341701,36.3768865 64.6834166,35.2034912 C67.3363666,34.0416618 69.7446804,32.3870906 71.78055,30.327585 C74.1462611,28.041388 75.7588875,25.2782431 77.3557425,22.5150982 C77.4919452,22.2999865 77.4952918,22.02651 77.3643938,21.8081316 C77.2334959,21.5897532 76.9906903,21.4637377 76.7367148,21.4823678 Z" id="Shape"></path>
                    </g>
                    <path d="M116.583935,11.5001486 C116.583935,13.3973883 116.086433,14.8318965 115.091413,15.8037162 C114.096394,16.775536 112.634819,17.2614386 110.706646,17.2614386 L108,17.2614386 L108,5.95539034 L111.054644,5.95539034 C112.859084,5.95539034 114.231726,6.4271154 115.172613,7.37057969 C116.113499,8.31404397 116.583935,9.69055318 116.583935,11.5001486 Z M115.725542,11.5310817 C115.725542,9.91224136 115.314394,8.6942627 114.492084,7.87710921 C113.669775,7.05995572 112.462108,6.6513851 110.869045,6.6513851 L108.788794,6.6513851 L108.788794,16.5654438 L110.660247,16.5654438 C114.037127,16.5654438 115.725542,14.8873399 115.725542,11.5310817 Z M124.046752,17.2614386 L123.85342,15.9313153 L123.791554,15.9313153 C123.3688,16.4726472 122.934452,16.8554405 122.488497,17.0797066 C122.042543,17.3039727 121.515396,17.4161041 120.907042,17.4161041 C120.082156,17.4161041 119.4403,17.20473 118.981457,16.7819755 C118.522614,16.359221 118.293195,15.7740757 118.293195,15.0265221 C118.293195,14.2067908 118.634745,13.5700909 119.317854,13.1164031 C120.000964,12.6627154 120.989524,12.4229862 122.283565,12.3972085 L123.884353,12.3508089 L123.884353,11.7940131 C123.884353,10.994904 123.721956,10.3917145 123.397157,9.98442669 C123.072358,9.57713883 122.549078,9.37349795 121.827302,9.37349795 C121.048815,9.37349795 120.241985,9.59002749 119.406787,10.0230931 L119.120656,9.3580314 C120.043498,8.92496583 120.956015,8.70843629 121.858235,8.70843629 C122.781077,8.70843629 123.470621,8.94816542 123.926886,9.42763088 C124.383152,9.90709633 124.611281,10.6546388 124.611281,11.6702807 L124.611281,17.2614386 L124.046752,17.2614386 Z M120.953442,16.7201093 C121.850506,16.7201093 122.558094,16.4636249 123.076226,15.9506485 C123.594358,15.437672 123.85342,14.7249289 123.85342,13.8123979 L123.85342,12.9849374 L122.384098,13.0468036 C121.203479,13.1035146 120.361849,13.2878225 119.859184,13.5997328 C119.356518,13.9116431 119.105189,14.3975457 119.105189,15.0574552 C119.105189,15.5833205 119.266298,15.9918911 119.588519,16.2831793 C119.91074,16.5744674 120.36571,16.7201093 120.953442,16.7201093 Z M129.506651,16.7355759 C129.991272,16.7355759 130.41402,16.6943322 130.774908,16.6118435 L130.774908,17.2305055 C130.403709,17.3542385 129.975805,17.4161041 129.491184,17.4161041 C128.748786,17.4161041 128.201018,17.2176187 127.847863,16.8206419 C127.494708,16.4236651 127.318134,15.7998538 127.318134,14.9491893 L127.318134,9.52043018 L126.073076,9.52043018 L126.073076,9.07190022 L127.318134,8.72390284 L127.704798,6.82151715 L128.099195,6.82151715 L128.099195,8.85536852 L130.566109,8.85536852 L130.566109,9.52043018 L128.099195,9.52043018 L128.099195,14.8409235 C128.099195,15.4853663 128.212615,15.9622468 128.439459,16.2715794 C128.666303,16.5809119 129.02203,16.7355759 129.506651,16.7355759 Z M137.649996,17.2614386 L137.456664,15.9313153 L137.394797,15.9313153 C136.972043,16.4726472 136.537695,16.8554405 136.091741,17.0797066 C135.645786,17.3039727 135.11864,17.4161041 134.510286,17.4161041 C133.685399,17.4161041 133.043544,17.20473 132.5847,16.7819755 C132.125857,16.359221 131.896439,15.7740757 131.896439,15.0265221 C131.896439,14.2067908 132.237988,13.5700909 132.921098,13.1164031 C133.604207,12.6627154 134.592768,12.4229862 135.886809,12.3972085 L137.487597,12.3508089 L137.487597,11.7940131 C137.487597,10.994904 137.3252,10.3917145 137.0004,9.98442669 C136.675601,9.57713883 136.152322,9.37349795 135.430546,9.37349795 C134.652059,9.37349795 133.845228,9.59002749 133.01003,10.0230931 L132.723899,9.3580314 C133.646741,8.92496583 134.559259,8.70843629 135.461479,8.70843629 C136.384321,8.70843629 137.073864,8.94816542 137.53013,9.42763088 C137.986395,9.90709633 138.214525,10.6546388 138.214525,11.6702807 L138.214525,17.2614386 L137.649996,17.2614386 Z M134.556686,16.7201093 C135.45375,16.7201093 136.161338,16.4636249 136.67947,15.9506485 C137.197602,15.437672 137.456664,14.7249289 137.456664,13.8123979 L137.456664,12.9849374 L135.987341,13.0468036 C134.806722,13.1035146 133.965092,13.2878225 133.462427,13.5997328 C132.959762,13.9116431 132.708433,14.3975457 132.708433,15.0574552 C132.708433,15.5833205 132.869541,15.9918911 133.191762,16.2831793 C133.513984,16.5744674 133.968954,16.7201093 134.556686,16.7201093 Z M119.514847,46.9572151 L111.843438,26.912566 L111.719705,26.912566 C111.864061,28.5004731 111.936237,30.3873733 111.936237,32.5733234 L111.936237,46.9572151 L109.507989,46.9572151 L109.507989,24.3451186 L113.467426,24.3451186 L120.628438,42.9977783 L120.752171,42.9977783 L127.97505,24.3451186 L131.903553,24.3451186 L131.903553,46.9572151 L129.27424,46.9572151 L129.27424,32.3877248 C129.27424,30.717329 129.346416,28.9026052 129.490772,26.9434991 L129.367039,26.9434991 L121.633764,46.9572151 L119.514847,46.9572151 Z M148.097238,46.9572151 L147.586842,44.5444333 L147.463109,44.5444333 C146.6176,45.6064751 145.774682,46.3256625 144.934328,46.7020171 C144.093975,47.0783717 143.044838,47.2665462 141.786885,47.2665462 C140.106178,47.2665462 138.788957,46.8334871 137.835182,45.9673559 C136.881406,45.1012248 136.404526,43.8690686 136.404526,42.2708504 C136.404526,38.8475702 139.142078,37.0534683 144.617264,36.8884909 L147.494042,36.7956916 L147.494042,35.7439662 C147.494042,34.4138362 147.207914,33.4317201 146.635649,32.7975884 C146.063384,32.1634566 145.148289,31.8463955 143.890336,31.8463955 C142.477718,31.8463955 140.879523,32.2794546 139.095706,33.1455857 L138.306912,31.1813339 C139.142109,30.7276461 140.057204,30.371919 141.052224,30.1141419 C142.047244,29.8563648 143.044826,29.7274781 144.045002,29.7274781 C146.065974,29.7274781 147.563637,30.1760036 148.538035,31.073068 C149.512432,31.9701324 149.999624,33.4085072 149.999624,35.3882355 L149.999624,46.9572151 L148.097238,46.9572151 Z M142.297281,45.1476288 C143.8955,45.1476288 145.150855,44.7094142 146.063386,43.832972 C146.975918,42.9565298 147.432176,41.729529 147.432176,40.151933 L147.432176,38.6207445 L144.864729,38.7290104 C142.823134,38.801188 141.351249,39.1182491 140.449029,39.6802032 C139.546809,40.2421574 139.095706,41.1160087 139.095706,42.3017835 C139.095706,43.2297812 139.376678,43.9360799 139.938633,44.4207009 C140.500587,44.9053219 141.286795,45.1476288 142.297281,45.1476288 Z M166.842903,46.9572151 L166.842903,35.991431 C166.842903,34.6097456 166.52842,33.5786526 165.899443,32.8981209 C165.270467,32.2175893 164.285773,31.8773286 162.945332,31.8773286 C161.171826,31.8773286 159.872648,32.3567869 159.047762,33.3157178 C158.222875,34.2746487 157.810438,35.8573765 157.810438,38.0639487 L157.810438,46.9572151 L155.24299,46.9572151 L155.24299,30.005876 L157.330975,30.005876 L157.748571,32.3258586 L157.872304,32.3258586 C158.398169,31.4906607 159.135401,30.8436498 160.084021,30.3848065 C161.03264,29.9259632 162.089511,29.696545 163.254663,29.696545 C165.296258,29.696545 166.832587,30.188892 167.863695,31.1736006 C168.894804,32.1583092 169.41035,33.7333038 169.41035,35.8986317 L169.41035,46.9572151 L166.842903,46.9572151 Z M185.062705,46.9572151 L184.552309,44.5444333 L184.428577,44.5444333 C183.583068,45.6064751 182.740149,46.3256625 181.899796,46.7020171 C181.059443,47.0783717 180.010305,47.2665462 178.752353,47.2665462 C177.071646,47.2665462 175.754425,46.8334871 174.800649,45.9673559 C173.846874,45.1012248 173.369993,43.8690686 173.369993,42.2708504 C173.369993,38.8475702 176.107545,37.0534683 181.582732,36.8884909 L184.45951,36.7956916 L184.45951,35.7439662 C184.45951,34.4138362 184.173382,33.4317201 183.601116,32.7975884 C183.028851,32.1634566 182.113756,31.8463955 180.855804,31.8463955 C179.443185,31.8463955 177.844991,32.2794546 176.061173,33.1455857 L175.272379,31.1813339 C176.107577,30.7276461 177.022672,30.371919 178.017692,30.1141419 C179.012712,29.8563648 180.010294,29.7274781 181.010469,29.7274781 C183.031442,29.7274781 184.529105,30.1760036 185.503502,31.073068 C186.4779,31.9701324 186.965091,33.4085072 186.965091,35.3882355 L186.965091,46.9572151 L185.062705,46.9572151 Z M179.262749,45.1476288 C180.860967,45.1476288 182.116323,44.7094142 183.028854,43.832972 C183.941385,42.9565298 184.397644,41.729529 184.397644,40.151933 L184.397644,38.6207445 L181.830196,38.7290104 C179.788602,38.801188 178.316716,39.1182491 177.414496,39.6802032 C176.512276,40.2421574 176.061173,41.1160087 176.061173,42.3017835 C176.061173,43.2297812 176.342146,43.9360799 176.9041,44.4207009 C177.466054,44.9053219 178.252263,45.1476288 179.262749,45.1476288 Z M206.081954,30.005876 L206.081954,31.6298638 L202.942244,32.001061 C203.230954,32.361949 203.488727,32.8336741 203.715571,33.4162504 C203.942415,33.9988267 204.055835,34.6561485 204.055835,35.3882355 C204.055835,37.0483202 203.488734,38.3732748 202.354515,39.363139 C201.220296,40.3530031 199.663345,40.8479278 197.683617,40.8479278 C197.178374,40.8479278 196.704071,40.8066841 196.260694,40.7241954 C195.167719,41.3016161 194.62124,42.0285367 194.62124,42.904979 C194.62124,43.3689778 194.811992,43.7118162 195.193502,43.9335046 C195.575012,44.1551929 196.229756,44.2660354 197.157754,44.2660354 L200.158265,44.2660354 C201.993638,44.2660354 203.403658,44.6526953 204.388366,45.4260267 C205.373075,46.1993581 205.865422,47.3232495 205.865422,48.7977346 C205.865422,50.6743521 205.112724,52.1049937 203.607305,53.0897023 C202.101887,54.074411 199.905659,54.5667579 197.018555,54.5667579 C194.801672,54.5667579 193.092635,54.1543207 191.891394,53.3294339 C190.690152,52.5045471 190.089541,51.3394119 190.089541,49.8339935 C190.089541,48.802885 190.41949,47.9109895 191.0794,47.1582803 C191.739309,46.4055711 192.667293,45.89518 193.863379,45.6270918 C193.430313,45.4311812 193.066853,45.1270088 192.772987,44.7145654 C192.479121,44.302122 192.33219,43.8226637 192.33219,43.2761762 C192.33219,42.6575111 192.497165,42.1161872 192.82712,41.6521884 C193.157075,41.1881896 193.677777,40.7396641 194.389242,40.3065985 C193.512799,39.9457105 192.798767,39.3322102 192.247124,38.466079 C191.695481,37.5999479 191.419664,36.6100986 191.419664,35.4965014 C191.419664,33.6405061 191.976454,32.2098645 193.090051,31.2045337 C194.203648,30.1992029 195.781221,29.696545 197.822816,29.696545 C198.709569,29.696545 199.508666,29.7996543 200.220131,30.005876 L206.081954,30.005876 Z M192.564189,49.8030604 C192.564189,50.720747 192.950848,51.4167348 193.72418,51.8910447 C194.497511,52.3653546 195.605936,52.602506 197.049488,52.602506 C199.204505,52.602506 200.800121,52.2802894 201.836385,51.6358466 C202.87265,50.9914038 203.390774,50.1175524 203.390774,49.0142663 C203.390774,48.0965798 203.107223,47.4598798 202.540114,47.1041474 C201.973004,46.7484149 200.905823,46.5705514 199.338538,46.5705514 L196.260694,46.5705514 C195.095541,46.5705514 194.18818,46.8489465 193.538581,47.4057451 C192.888983,47.9625437 192.564189,48.7616408 192.564189,49.8030604 Z M193.956178,35.4346352 C193.956178,36.62041 194.291283,37.5174609 194.961504,38.1258149 C195.631724,38.734169 196.564864,39.0383414 197.760949,39.0383414 C200.266543,39.0383414 201.519321,37.8216516 201.519321,35.3882355 C201.519321,32.8413975 200.251077,31.5679976 197.71455,31.5679976 C196.508153,31.5679976 195.580169,31.8927919 194.930571,32.5423903 C194.280972,33.1919886 193.956178,34.1560606 193.956178,35.4346352 Z M216.676747,47.2665462 C214.171153,47.2665462 212.194032,46.5035373 210.745325,44.9774967 C209.296617,43.4514561 208.572274,41.3325599 208.572274,38.6207445 C208.572274,35.888307 209.245063,33.7178561 210.590659,32.1093269 C211.936256,30.5007976 213.743246,29.696545 216.011685,29.696545 C218.135769,29.696545 219.81645,30.3951106 221.05378,31.7922626 C222.291111,33.1894146 222.909766,35.0324934 222.909766,37.3215543 L222.909766,38.9455421 L211.232521,38.9455421 C211.284076,40.9355815 211.786734,42.4461328 212.74051,43.4772413 C213.694285,44.5083498 215.037284,45.0238964 216.769546,45.0238964 C218.594608,45.0238964 220.399021,44.6423919 222.182839,43.8793716 L222.182839,46.1684211 C221.275463,46.5602423 220.417078,46.8412152 219.607658,47.0113481 C218.798238,47.181481 217.821277,47.2665462 216.676747,47.2665462 Z M215.980752,31.8463955 C214.619689,31.8463955 213.534463,32.2897655 212.725043,33.1765188 C211.915623,34.0632722 211.438742,35.2902729 211.294387,36.8575578 L220.156721,36.8575578 C220.156721,35.2387175 219.795838,33.9988281 219.074062,33.1378525 C218.352286,32.2768769 217.321193,31.8463955 215.980752,31.8463955 Z M234.973882,29.696545 C235.726591,29.696545 236.401957,29.7584106 237,29.8821436 L236.644269,32.2639924 C235.943116,32.1093261 235.32446,32.0319941 234.788283,32.0319941 C233.416909,32.0319941 232.244041,32.5887844 231.269643,33.7023816 C230.295246,34.8159787 229.808054,36.2027989 229.808054,37.8628836 L229.808054,46.9572151 L227.240607,46.9572151 L227.240607,30.005876 L229.359524,30.005876 L229.653389,33.1455857 L229.777121,33.1455857 C230.406097,32.0422996 231.163951,31.1916479 232.050704,30.5936049 C232.937457,29.995562 233.91184,29.696545 234.973882,29.696545 Z" id="Data-Manager" fill="#FFFFFF"></path>
                </g>
            </g>
        </g>
    </g>
</svg>