<svg id="Layer_1" data-name="Layer 1" xmlns="http://www.w3.org/2000/svg" xmlns:xlink="http://www.w3.org/1999/xlink" viewBox="0 0 396.76 105.29"><defs><style>.cls-1,.cls-2,.cls-6{fill:none;}.cls-2{clip-rule:evenodd;}.cls-3{clip-path:url(#clip-path);}.cls-4{fill:#fff;}.cls-5{clip-path:url(#clip-path-2);}.cls-6{stroke:#fff;stroke-linecap:square;stroke-miterlimit:10;opacity:0.25;}.cls-7{clip-path:url(#clip-path-3);}.cls-8{fill:#2b8acb;}</style><clipPath id="clip-path" transform="translate(-11.48 -24.09)"><rect class="cls-1" x="212.48" y="23.74" width="204" height="97"/></clipPath><clipPath id="clip-path-2" transform="translate(-11.48 -24.09)"><rect class="cls-1" x="16.48" y="22.74" width="400" height="108"/></clipPath><clipPath id="clip-path-3" transform="translate(-11.48 -24.09)"><path class="cls-2" d="M122.79,67.66H66.93c-11.09-.89-19.86,4.12-27.05,11.44S27.31,95.71,22.61,103.86l-.06.1-5.94,10.37a.93.93,0,0,0,.33,1.28l3.11.13a38.93,38.93,0,0,0,18.11-4.47A32.4,32.4,0,0,0,50.59,98.82c4.26-7.49,14.12-9.28,23.2-9.3H94.07a34.14,34.14,0,0,0,12-2.75A31.64,31.64,0,0,0,115.92,80c3.28-3.18,5.52-7,7.73-10.88a.94.94,0,0,0-.86-1.44ZM114.94,78.3a40.9,40.9,0,0,0,6.28-8.75H66.78c-10.43-.84-18.73,3.93-25.57,10.88a80.79,80.79,0,0,0-9.51,12c6.85-6.59,14.89-10.63,24-13,18-4.74,41.14-3.12,59.23-1.14ZM55.46,87.62H94a32.45,32.45,0,0,0,11.35-2.57,29.34,29.34,0,0,0,7.84-5L98.9,78.77c-6.85-.45-13.71-.66-20.52-.44-12.9.43-26.39,2.46-37.54,9.4l-3.47,2.38-1.91,1.52,1.3-.67a35.63,35.63,0,0,1,18.7-3.33ZM49.37,62.3,48,63.64l-.23.22,1.57-2.74c4.09-7.09,9.12-12.37,15.4-16s13.44-5.4,21.74-5.53h60.48l-1.64,2.82a37.4,37.4,0,0,1-6.55,7.75l-6.22-.86C114.23,47,94.9,45.39,76.67,49.07c-10.06,2-19.66,6.25-27.31,13.22Zm70.15-4.6H72.6c-8.74,0-16.39,2.25-23,7a50.43,50.43,0,0,1,19-11.45c20.26-7,47.71-4.36,68.22-1.45a30.29,30.29,0,0,1-2.62,1.72,31.55,31.55,0,0,1-14.61,4.17Zm-75,14C51.77,63.76,61,59.56,72.58,59.57h47A32.21,32.21,0,0,0,143.47,48c2.87-3.34,3.77-5.19,5.88-8.9a.94.94,0,0,0-.8-1.4H86.43q-13,.19-22.66,5.77a43.69,43.69,0,0,0-16,16.5l-5.56,9.67a1.59,1.59,0,0,0,.34,1.94,1.56,1.56,0,0,0,2,.08Zm9.06,17.7q3-.09,6.42.09c-4.92,1.61-8.62,4.24-11,8.36C42.42,109,32,113.85,19,113.85c1.4-2.68,2.79-5.13,4.23-7.37,7-10.88,15.14-16.59,30.31-17.07Z"/></clipPath></defs><title>M logo</title><g class="cls-3"><path class="cls-4" d="M235.63,52.64q0,6.48-3.39,9.79t-10,3.31h-6.15V40h6.94q6.15,0,9.36,3.22T235.63,52.64Zm-1.95.07c0-3.68-.94-6.44-2.81-8.3s-4.61-2.79-8.23-2.79h-4.73V64.16h4.25Q233.68,64.16,233.68,52.71Z" transform="translate(-11.48 -24.09)"/><path class="cls-4" d="M252.66,65.74l-.44-3h-.14a9.1,9.1,0,0,1-3,2.61,7.9,7.9,0,0,1-3.6.76,6.21,6.21,0,0,1-4.37-1.44,5.13,5.13,0,0,1-1.57-4,4.93,4.93,0,0,1,2.33-4.34,12.68,12.68,0,0,1,6.74-1.64l3.64-.1V53.31a6.46,6.46,0,0,0-1.11-4.11,4.25,4.25,0,0,0-3.56-1.39,11.91,11.91,0,0,0-5.51,1.48l-.65-1.52a14.66,14.66,0,0,1,6.23-1.47,6.21,6.21,0,0,1,4.7,1.63c1,1.09,1.55,2.79,1.55,5.1V65.74Zm-7-1.23a6.09,6.09,0,0,0,6.59-6.61V56l-3.34.14a12.62,12.62,0,0,0-5.74,1.26,3.61,3.61,0,0,0-1.71,3.31,3.57,3.57,0,0,0,1.1,2.79A4.46,4.46,0,0,0,245.63,64.51Z" transform="translate(-11.48 -24.09)"/><path class="cls-4" d="M265.14,64.54a12.89,12.89,0,0,0,2.88-.28v1.41a9.2,9.2,0,0,1-2.91.42,4.76,4.76,0,0,1-3.74-1.35,6.32,6.32,0,0,1-1.2-4.26V48.14h-2.83v-1l2.83-.79L261,42h.9v4.62h5.61v1.51h-5.61v12.1a5.56,5.56,0,0,0,.77,3.25A2.83,2.83,0,0,0,265.14,64.54Z" transform="translate(-11.48 -24.09)"/><path class="cls-4" d="M283.72,65.74l-.44-3h-.14a9.1,9.1,0,0,1-3,2.61,7.93,7.93,0,0,1-3.6.76,6.21,6.21,0,0,1-4.37-1.44,5.13,5.13,0,0,1-1.57-4A4.93,4.93,0,0,1,273,56.32a12.68,12.68,0,0,1,6.74-1.64l3.64-.1V53.31a6.46,6.46,0,0,0-1.11-4.11,4.25,4.25,0,0,0-3.56-1.39,11.91,11.91,0,0,0-5.51,1.48l-.65-1.52a14.66,14.66,0,0,1,6.23-1.47,6.21,6.21,0,0,1,4.7,1.63Q285,49.57,285,53V65.74Zm-7-1.23a6.09,6.09,0,0,0,6.59-6.61V56l-3.34.14a12.62,12.62,0,0,0-5.74,1.26,3.61,3.61,0,0,0-1.71,3.31,3.57,3.57,0,0,0,1.1,2.79A4.46,4.46,0,0,0,276.69,64.51Z" transform="translate(-11.48 -24.09)"/><path class="cls-4" d="M216,76.47h8.45l9.45,26.83h.1l9.22-26.83h8.35v34.27h-5.71V84.29h-.1l-9.5,26.45h-4.95l-9.5-26.45h-.1v26.45H216Z" transform="translate(-11.48 -24.09)"/><path class="cls-4" d="M278.77,105.22a2.88,2.88,0,0,0,.26,1.44,1.1,1.1,0,0,0,1,.43h.58a3.32,3.32,0,0,0,.77-.1v3.8l-.75.21-.93.22c-.32.06-.64.11-1,.14s-.6,0-.82,0a5.23,5.23,0,0,1-2.78-.67,3.32,3.32,0,0,1-1.44-2.35,9.78,9.78,0,0,1-4,2.3,15.81,15.81,0,0,1-4.59.72,11,11,0,0,1-3.21-.46,8.28,8.28,0,0,1-2.71-1.34,6.44,6.44,0,0,1-1.88-2.25,7,7,0,0,1-.69-3.2,7.37,7.37,0,0,1,.84-3.74,6.22,6.22,0,0,1,2.21-2.26A10,10,0,0,1,262.76,97a33.09,33.09,0,0,1,3.43-.55A26.1,26.1,0,0,1,269,96a13.48,13.48,0,0,0,2.38-.41,3.6,3.6,0,0,0,1.63-.89,2.44,2.44,0,0,0,.6-1.8,2.86,2.86,0,0,0-.5-1.73,3.55,3.55,0,0,0-1.25-1,5.43,5.43,0,0,0-1.66-.48,13.25,13.25,0,0,0-1.73-.12,6.88,6.88,0,0,0-3.79,1,3.75,3.75,0,0,0-1.68,3h-5.47a8.34,8.34,0,0,1,1.15-4A8,8,0,0,1,261.27,87a10.4,10.4,0,0,1,3.53-1.34,20.63,20.63,0,0,1,4-.39,16.68,16.68,0,0,1,3.6.39,10.2,10.2,0,0,1,3.19,1.24,6.79,6.79,0,0,1,2.28,2.24,6.07,6.07,0,0,1,.87,3.33Zm-5.48-6.91a6.63,6.63,0,0,1-3.07,1c-1.21.11-2.43.28-3.65.5a13.72,13.72,0,0,0-1.68.41,5.39,5.39,0,0,0-1.44.72,3.3,3.3,0,0,0-1,1.2,4.13,4.13,0,0,0-.36,1.8,2.27,2.27,0,0,0,.53,1.54,3.71,3.71,0,0,0,1.27,1,6.09,6.09,0,0,0,1.63.51,10.85,10.85,0,0,0,1.61.14,9,9,0,0,0,2-.24,6.62,6.62,0,0,0,2-.81,5.47,5.47,0,0,0,1.56-1.47,3.67,3.67,0,0,0,.62-2.18Z" transform="translate(-11.48 -24.09)"/><path class="cls-4" d="M284.62,85.92h5.19v3.65l.09.1a9.06,9.06,0,0,1,3.27-3.24,8.62,8.62,0,0,1,4.46-1.18,9.26,9.26,0,0,1,6.43,2.11q2.35,2.11,2.35,6.34v17h-5.47V95.14a6.72,6.72,0,0,0-1.25-4.25,4.51,4.51,0,0,0-3.6-1.32,5.86,5.86,0,0,0-2.49.51,5.3,5.3,0,0,0-1.87,1.39,6.25,6.25,0,0,0-1.2,2.09,7.37,7.37,0,0,0-.44,2.54v14.64h-5.47Z" transform="translate(-11.48 -24.09)"/><path class="cls-4" d="M332.91,105.22a3,3,0,0,0,.26,1.44,1.11,1.11,0,0,0,1,.43h.58a3.32,3.32,0,0,0,.77-.1v3.8l-.74.21-.94.22c-.32.06-.64.11-1,.14s-.59,0-.82,0a5.23,5.23,0,0,1-2.78-.67,3.32,3.32,0,0,1-1.44-2.35,9.72,9.72,0,0,1-4,2.3,15.75,15.75,0,0,1-4.58.72,11.09,11.09,0,0,1-3.22-.46,8.38,8.38,0,0,1-2.71-1.34,6.31,6.31,0,0,1-1.87-2.25,6.92,6.92,0,0,1-.7-3.2,7.37,7.37,0,0,1,.84-3.74,6.3,6.3,0,0,1,2.21-2.26A10.09,10.09,0,0,1,316.9,97a33.52,33.52,0,0,1,3.43-.55,25.91,25.91,0,0,1,2.84-.41,13.52,13.52,0,0,0,2.37-.41,3.6,3.6,0,0,0,1.63-.89,2.44,2.44,0,0,0,.6-1.8,2.79,2.79,0,0,0-.5-1.73,3.46,3.46,0,0,0-1.25-1,5.35,5.35,0,0,0-1.66-.48,13.11,13.11,0,0,0-1.72-.12,6.85,6.85,0,0,0-3.79,1,3.7,3.7,0,0,0-1.68,3h-5.48a8.23,8.23,0,0,1,1.16-4A8,8,0,0,1,315.41,87a10.4,10.4,0,0,1,3.53-1.34,20.7,20.7,0,0,1,4-.39,16.68,16.68,0,0,1,3.6.39,10.26,10.26,0,0,1,3.2,1.24A6.85,6.85,0,0,1,332,89.12a6.07,6.07,0,0,1,.87,3.33Zm-5.47-6.91a6.67,6.67,0,0,1-3.08,1c-1.21.11-2.43.28-3.64.5a12.88,12.88,0,0,0-1.68.41,5.11,5.11,0,0,0-1.44.72,3.23,3.23,0,0,0-1,1.2,4.13,4.13,0,0,0-.36,1.8,2.32,2.32,0,0,0,.53,1.54,3.8,3.8,0,0,0,1.27,1,6,6,0,0,0,1.64.51,10.72,10.72,0,0,0,1.6.14,8.89,8.89,0,0,0,2-.24,6.62,6.62,0,0,0,2-.81,5.22,5.22,0,0,0,1.56-1.47,3.67,3.67,0,0,0,.63-2.18Z" transform="translate(-11.48 -24.09)"/><path class="cls-4" d="M361.71,109.44q0,5.63-3.14,8.38t-9.05,2.76a19.36,19.36,0,0,1-3.77-.38,11.32,11.32,0,0,1-3.46-1.3,8.31,8.31,0,0,1-2.61-2.4,7.26,7.26,0,0,1-1.25-3.65h5.47a4.29,4.29,0,0,0,.82,1.87,4.13,4.13,0,0,0,1.37,1.13,5.18,5.18,0,0,0,1.75.53,16.21,16.21,0,0,0,2,.12c2.21,0,3.83-.55,4.85-1.63a6.6,6.6,0,0,0,1.54-4.71v-3.79h-.1a8.44,8.44,0,0,1-7.44,4.37,11.3,11.3,0,0,1-5.06-1,9.59,9.59,0,0,1-3.46-2.84,11.84,11.84,0,0,1-2-4.15,19.33,19.33,0,0,1-.62-5,14.73,14.73,0,0,1,.76-4.75,12.35,12.35,0,0,1,2.21-4,10.65,10.65,0,0,1,3.53-2.71,10.77,10.77,0,0,1,4.73-1,9.52,9.52,0,0,1,4.32,1,6.61,6.61,0,0,1,3,3.09h.1V85.92h5.47Zm-12.14-3a6,6,0,0,0,3.09-.75,6.07,6.07,0,0,0,2.07-2,8.92,8.92,0,0,0,1.15-2.79,13.94,13.94,0,0,0,.36-3.14,12,12,0,0,0-.39-3.07,8.23,8.23,0,0,0-1.17-2.64,5.72,5.72,0,0,0-2.07-1.83,6.5,6.5,0,0,0-3-.67,5.82,5.82,0,0,0-3.08.77,6.17,6.17,0,0,0-2,2,8.63,8.63,0,0,0-1.11,2.79,14.9,14.9,0,0,0-.33,3.09,11.53,11.53,0,0,0,.38,3,8.34,8.34,0,0,0,1.18,2.62,6.31,6.31,0,0,0,2,1.87A5.74,5.74,0,0,0,349.57,106.42Z" transform="translate(-11.48 -24.09)"/><path class="cls-4" d="M371.45,99.75a9.54,9.54,0,0,0,.41,2.78,6.82,6.82,0,0,0,1.22,2.35,5.91,5.91,0,0,0,2.07,1.61,6.78,6.78,0,0,0,3,.6,6.59,6.59,0,0,0,3.87-1,6.13,6.13,0,0,0,2.18-3.1h5.19a10.31,10.31,0,0,1-4,6.27,11,11,0,0,1-3.33,1.63,13.36,13.36,0,0,1-3.87.55,13.11,13.11,0,0,1-5.18-1,10.8,10.8,0,0,1-3.82-2.69,11.38,11.38,0,0,1-2.35-4.12,16.71,16.71,0,0,1-.79-5.28,14.94,14.94,0,0,1,.84-5,12.8,12.8,0,0,1,2.4-4.18A11.43,11.43,0,0,1,373,86.31a11.32,11.32,0,0,1,5-1.06,11.12,11.12,0,0,1,5.26,1.23,11.45,11.45,0,0,1,3.86,3.23,13.15,13.15,0,0,1,2.23,4.64,14,14,0,0,1,.36,5.4Zm12.77-3.6a8.8,8.8,0,0,0-.55-2.5,6.83,6.83,0,0,0-1.25-2.09,6.29,6.29,0,0,0-1.92-1.44,5.75,5.75,0,0,0-2.52-.55,6.55,6.55,0,0,0-2.62.51,5.94,5.94,0,0,0-2,1.39A7,7,0,0,0,372,93.56a7.35,7.35,0,0,0-.55,2.59Z" transform="translate(-11.48 -24.09)"/><path class="cls-4" d="M393.69,85.92h5.14v4.8h.09a5.55,5.55,0,0,1,.94-2A9.22,9.22,0,0,1,401.54,87a8.59,8.59,0,0,1,2.18-1.27,6.56,6.56,0,0,1,2.45-.48,12.24,12.24,0,0,1,1.32,0l.74.1v5.27l-1.17-.16a9.45,9.45,0,0,0-1.18-.07,6.2,6.2,0,0,0-2.61.55,6,6,0,0,0-2.14,1.63,8,8,0,0,0-1.44,2.66,11.64,11.64,0,0,0-.53,3.65v11.81h-5.47Z" transform="translate(-11.48 -24.09)"/></g><g class="cls-5"><line class="cls-6" x1="170.5" y1="0.5" x2="170.5" y2="104.79"/></g><g class="cls-7"><g class="cls-5"><rect class="cls-8" y="8.65" width="143" height="88"/></g></g></svg>