<svg id="Capa_1" data-name="Capa 1" xmlns="http://www.w3.org/2000/svg" viewBox="0 0 347.7 117.6"><defs><style>.cls-1{fill:#0080c4;}.cls-2{fill:#4688c7;}.cls-3{fill:#35aee3;}.cls-4{fill:#009edb;}.cls-5{fill:#006cb6;}.cls-6{fill:#0080c5;}.cls-7{fill:#c91528;}.cls-8{fill:#a5182f;}.cls-9{fill:#ed355c;}.cls-10{fill:#98258e;}.cls-11{fill:#3d52a3;}.cls-12{fill:#7d4c9d;}.cls-13{fill:#6e4198;}.cls-14{fill:#751032;}.cls-15{fill:#932973;}.cls-16{fill:#bb2460;}.cls-17{fill:#1f69b2;}.cls-18{fill:#3e4c9f;}</style></defs><title>openre-logo</title><path d="M249.5,256.8c-0.1,10.5-6.6,21-20.8,21s-20.9-10.3-20.9-20.9,6.8-21.4,20.9-21.4C242.6,235.4,249.6,246.1,249.5,256.8Zm-34.2.1c0.2,6.7,3.8,13.8,13.3,13.8s13.2-7.2,13.3-13.9-3.7-14.5-13.3-14.5S215.1,250.1,215.3,256.9Z" transform="translate(-78.8 -197.2)"/><path d="M254.6,288.8V248.3h6.6l0.5,3.9a11.31,11.31,0,0,1,9.3-4.6c8.8,0,14.7,6.6,14.7,15s-5.3,15-14.4,15c-3,0-7.5-.9-9.5-4.1v15.3h-7.2Zm23.9-26.2a8.1,8.1,0,0,0-16.2,0A8.1,8.1,0,0,0,278.5,262.6Z" transform="translate(-78.8 -197.2)"/><path d="M296.8,265c0.5,3.5,3.5,6.1,8.5,6.1,2.6,0,6-1,7.7-2.7l4.5,4.5c-3,3.1-7.9,4.6-12.3,4.6-9.9,0-15.7-6.1-15.7-15.2,0-8.7,5.9-15,15.2-15,9.6,0,15.5,5.9,14.4,17.7H296.8Zm15.6-5.8c-0.5-3.7-3.4-5.6-7.4-5.6-3.8,0-7,1.9-8,5.6h15.4Z" transform="translate(-78.8 -197.2)"/><path d="M345.6,276.8v-15c0-4.3-2.4-7.7-6.9-7.7-4.3,0-7.3,3.7-7.3,8v14.6h-7V248.1h6.3l0.5,3.9c2.9-2.8,5.8-4.3,9.4-4.3,6.7,0,12.1,5,12.1,14v15h-7.1v0.1Z" transform="translate(-78.8 -197.2)"/><path d="M392.6,276.8h-4.1l-14-15.4H363.4v15.4h-3.1V236.2h17.9c8.8,0,13.3,6.3,13.3,12.6,0.1,6.6-4.3,12.4-13.2,12.4Zm-29.2-18.3h14.4c7.1,0,10.2-4,10.3-9.7,0.1-4.8-3.2-9.7-9.9-9.7H363.5v19.4h-0.1Z" transform="translate(-78.8 -197.2)"/><path d="M400.9,255h23.8v2.8H400.9v16h25.6v3H397.8V236.2h28v3H400.9V255Z" transform="translate(-78.8 -197.2)"/><polygon class="cls-1" points="29.6 12.6 3.6 27.6 29.6 42.6 29.6 12.6"/><polygon class="cls-2" points="73.2 42.6 73.2 42.6 73.2 12.6 73.2 12.6 51.4 30 73.2 42.6"/><polygon class="cls-3" points="73.2 12.6 51.4 0 51.4 30 73.2 12.6"/><polygon class="cls-4" points="51.4 0 29.6 12.6 51.4 30 51.4 0"/><polygon class="cls-5" points="29.6 42.6 51.4 30 29.6 12.6 29.6 12.6 29.6 42.6"/><polygon class="cls-6" points="99.1 27.6 73.2 12.6 73.2 42.6 99.1 27.6"/><polygon class="cls-7" points="26 75 26 105 26 105 47.8 87.6 26 75"/><polygon class="cls-8" points="26 105 47.8 117.6 47.8 87.6 26 105"/><polygon class="cls-9" points="26 75 0 89.9 0 90 26 105 26 75"/><polygon class="cls-10" points="0 63.2 0 89.9 26 75 0 63.2"/><polygon class="cls-11" points="26 49.7 0.1 34.8 0 34.8 0 63.2 26 49.8 26 49.7"/><polygon class="cls-12" points="26 74.9 26 49.8 0 63.2 26 75 26 74.9"/><polygon class="cls-13" points="76.8 75 102.8 89.9 102.8 62.3 76.8 75"/><polygon class="cls-14" points="55 117.6 76.8 105 55 87.6 55 117.6"/><polygon class="cls-15" points="76.8 75 76.8 105 102.8 90 102.8 89.9 76.8 75"/><polygon class="cls-16" points="55 87.6 76.8 105 76.8 105 76.8 75 55 87.6"/><polygon class="cls-17" points="76.8 49.8 102.8 62.3 102.8 34.8 102.7 34.8 76.8 49.7 76.8 49.8"/><polygon class="cls-18" points="76.8 74.9 76.8 75 102.8 62.3 76.8 49.8 76.8 74.9"/></svg>