<svg id="Layer_1" data-name="Layer 1" xmlns="http://www.w3.org/2000/svg" viewBox="0 0 601.24 142.48"><defs><style>.cls-1{fill:#4e4e50;}.cls-2{fill:#5cbae9;}.cls-3{fill:none;stroke:#5c5a5a;stroke-miterlimit:10;stroke-width:2px;opacity:0.23;}</style></defs><title>feesimple-logo</title><path class="cls-1" d="M182.38,233.33c-16.34,0-29.16,4.44-39.18,13.58-7.23,6.59-13,15.74-17.6,27.86l-10.54,30.81s7.86-9.45,34.67-10c1,0,43.31,0,43.31,0,24.55,0,27.58-20.2,27.58-20.2l-59.5,0c1.91-5.5,5.41-12.87,15.45-17.74,5.36-2.6,12.4-4.22,21.67-4.24l32.62,0.08c24.55,0,27.58-20.2,27.58-20.2H182.38Z" transform="translate(-104.13 -215.11)"/><path class="cls-2" d="M138.45,303.63c-17.88,2.49-27.29,13.68-30.85,23.82l-3.47,10.15c18.7,0,36.08-3,42.66-21.89l4.66-13.25S145.21,302.69,138.45,303.63Z" transform="translate(-104.13 -215.11)"/><path class="cls-1" d="M356,315.52V255.8h33.37v6.34H364.5v20h20.9v6.25H364.5v27.12H356Z" transform="translate(-104.13 -215.11)"/><path class="cls-1" d="M426.56,314.11a48.44,48.44,0,0,1-13.68,2.42q-9.68,0-15.8-6.44T391,293.41q0-10,5.39-16.34a17.23,17.23,0,0,1,13.78-6.38q7.95,0,12.29,5.65t4.34,16.06l0,2.46H399.08q1.73,15.62,15.29,15.62a36.53,36.53,0,0,0,12.19-2.66v6.29Zm-27.12-25.22h19.33q0-12.23-9.12-12.23T399.44,288.89Z" transform="translate(-104.13 -215.11)"/><path class="cls-1" d="M468.47,314.11a48.44,48.44,0,0,1-13.68,2.42q-9.68,0-15.8-6.44t-6.11-16.69q0-10,5.39-16.34A17.23,17.23,0,0,1,452,270.69q7.95,0,12.29,5.65t4.34,16.06l0,2.46H441q1.73,15.62,15.29,15.62a36.53,36.53,0,0,0,12.19-2.66v6.29Zm-27.12-25.22h19.33q0-12.23-9.12-12.23T441.35,288.89Z" transform="translate(-104.13 -215.11)"/><path class="cls-1" d="M489.72,317a59.54,59.54,0,0,1-15.38-2.62V306q10.09,4.68,16.59,4.68a11.9,11.9,0,0,0,8-2.62,8.66,8.66,0,0,0,3-6.9,9.18,9.18,0,0,0-2-6q-2-2.46-7.37-5.49l-4.11-2.38q-7.63-4.36-10.75-8.21a13.82,13.82,0,0,1-3.13-9,14.54,14.54,0,0,1,5-11.36,18.45,18.45,0,0,1,12.75-4.46,50.7,50.7,0,0,1,14.57,2.3v7.75q-9.44-3.71-14.08-3.71a11.11,11.11,0,0,0-7.26,2.34,7.3,7.3,0,0,0-2.87,5.89,7.61,7.61,0,0,0,2.1,5.29,33.32,33.32,0,0,0,7.67,5.49l4.28,2.42q7.74,4.4,10.81,8.31a14.78,14.78,0,0,1,3.07,9.4,15.38,15.38,0,0,1-5.75,12.51Q499.19,317,489.72,317Z" transform="translate(-104.13 -215.11)"/><path class="cls-2" d="M518.63,264.75V256.8l13.7-4-5.75,11.94h-7.95Z" transform="translate(-104.13 -215.11)"/><path class="cls-1" d="M518.63,315.52V271.7h7.95v43.82h-7.95Z" transform="translate(-104.13 -215.11)"/><path class="cls-1" d="M537.39,315.52V271.7h7.95v8.23q5.81-9.2,14.93-9.2,8.8,0,12,9.2,5.65-9.24,14.69-9.24,5.81,0,9,3.41t3.19,9.54v31.88h-8V284.9q0-7.51-5.93-7.51-6.17,0-13,8.76v29.38h-8V284.9q0-7.55-6.05-7.55t-12.87,8.8v29.38h-7.95Z" transform="translate(-104.13 -215.11)"/><path class="cls-1" d="M607.4,331.46V271.7h7.95v8.23q4.88-9.2,14.65-9.2a15,15,0,0,1,12.45,5.77q4.54,5.77,4.54,15.78,0,10.89-5.14,17.57a17,17,0,0,1-26.49.71v20.9H607.4Zm7.95-26.39q6.13,5.49,11.7,5.49,11.46,0,11.46-17.47,0-15.41-10.17-15.41-6.66,0-13,7.22v20.18Z" transform="translate(-104.13 -215.11)"/><path class="cls-1" d="M654.29,315.52V251.81h7.95v63.71h-7.95Z" transform="translate(-104.13 -215.11)"/><path class="cls-1" d="M705.16,314.11a48.42,48.42,0,0,1-13.68,2.42q-9.68,0-15.8-6.44t-6.11-16.69q0-10,5.39-16.34a17.23,17.23,0,0,1,13.78-6.38q7.95,0,12.29,5.65t4.34,16.06l0,2.46H677.68q1.73,15.62,15.29,15.62a36.52,36.52,0,0,0,12.18-2.66v6.29ZM678,288.89h19.33q0-12.23-9.12-12.23T678,288.89Z" transform="translate(-104.13 -215.11)"/><line class="cls-3" x1="193.19" x2="193.19" y2="142.48"/></svg>